<svg xmlns="http://www.w3.org/2000/svg" viewBox="0 0 306 240"><rect x="264" y="0" width="20" height="20" rx="2.5" fill="#DCE7FF"/><rect x="286" y="0" width="20" height="20" rx="2.5" fill="#DCE7FF"/><rect x="220" y="22" width="20" height="20" rx="2.5" fill="#DCE7FF"/><rect x="242" y="22" width="20" height="20" rx="2.5" fill="#DCE7FF"/><rect x="286" y="22" width="20" height="20" rx="2.5" fill="#1A5BFF"/><rect x="176" y="44" width="20" height="20" rx="2.5" fill="#8FB0FF"/><rect x="220" y="44" width="20" height="20" rx="2.5" fill="#DCE7FF"/><rect x="242" y="44" width="20" height="20" rx="2.5" fill="#8FB0FF"/><rect x="286" y="44" width="20" height="20" rx="2.5" fill="#3D74FF"/><rect x="198" y="66" width="20" height="20" rx="2.5" fill="#8FB0FF"/><rect x="242" y="66" width="20" height="20" rx="2.5" fill="#0048F8"/><rect x="286" y="66" width="20" height="20" rx="2.5" fill="#8FB0FF"/><rect x="198" y="88" width="20" height="20" rx="2.5" fill="#3D74FF"/><rect x="264" y="88" width="20" height="20" rx="2.5" fill="#3D74FF"/><rect x="286" y="88" width="20" height="20" rx="2.5" fill="#1A5BFF"/><rect x="176" y="110" width="20" height="20" rx="2.5" fill="#0048F8"/><rect x="220" y="110" width="20" height="20" rx="2.5" fill="#0048F8"/><rect x="242" y="110" width="20" height="20" rx="2.5" fill="#0048F8"/><rect x="264" y="110" width="20" height="20" rx="2.5" fill="#3D74FF"/><rect x="286" y="110" width="20" height="20" rx="2.5" fill="#0040E0"/><rect x="154" y="132" width="20" height="20" rx="2.5" fill="#C2D4FF"/><rect x="176" y="132" width="20" height="20" rx="2.5" fill="#0040E0"/><rect x="198" y="132" width="20" height="20" rx="2.5" fill="#0048F8"/><rect x="220" y="132" width="20" height="20" rx="2.5" fill="#1A5BFF"/><rect x="242" y="132" width="20" height="20" rx="2.5" fill="#1A5BFF"/><rect x="264" y="132" width="20" height="20" rx="2.5" fill="#0048F8"/><rect x="286" y="132" width="20" height="20" rx="2.5" fill="#0048F8"/><rect x="176" y="154" width="20" height="20" rx="2.5" fill="#0048F8"/><rect x="198" y="154" width="20" height="20" rx="2.5" fill="#0040E0"/><rect x="220" y="154" width="20" height="20" rx="2.5" fill="#1A5BFF"/><rect x="242" y="154" width="20" height="20" rx="2.5" fill="#0048F8"/><rect x="264" y="154" width="20" height="20" rx="2.5" fill="#0048F8"/><rect x="286" y="154" width="20" height="20" rx="2.5" fill="#0040E0"/><rect x="88" y="176" width="20" height="20" rx="2.5" fill="#1A5BFF"/><rect x="132" y="176" width="20" height="20" rx="2.5" fill="#1A5BFF"/><rect x="154" y="176" width="20" height="20" rx="2.5" fill="#0040E0"/><rect x="176" y="176" width="20" height="20" rx="2.5" fill="#0048F8"/><rect x="198" y="176" width="20" height="20" rx="2.5" fill="#3D74FF"/><rect x="220" y="176" width="20" height="20" rx="2.5" fill="#0048F8"/><rect x="242" y="176" width="20" height="20" rx="2.5" fill="#1A5BFF"/><rect x="264" y="176" width="20" height="20" rx="2.5" fill="#0048F8"/><rect x="286" y="176" width="20" height="20" rx="2.5" fill="#0048F8"/><rect x="22" y="198" width="20" height="20" rx="2.5" fill="#8FB0FF"/><rect x="88" y="198" width="20" height="20" rx="2.5" fill="#1A5BFF"/><rect x="110" y="198" width="20" height="20" rx="2.5" fill="#3D74FF"/><rect x="132" y="198" width="20" height="20" rx="2.5" fill="#0040E0"/><rect x="154" y="198" width="20" height="20" rx="2.5" fill="#0048F8"/><rect x="176" y="198" width="20" height="20" rx="2.5" fill="#1A5BFF"/><rect x="198" y="198" width="20" height="20" rx="2.5" fill="#3D74FF"/><rect x="220" y="198" width="20" height="20" rx="2.5" fill="#0040E0"/><rect x="242" y="198" width="20" height="20" rx="2.5" fill="#1A5BFF"/><rect x="264" y="198" width="20" height="20" rx="2.5" fill="#0040E0"/><rect x="286" y="198" width="20" height="20" rx="2.5" fill="#1A5BFF"/><rect x="22" y="220" width="20" height="20" rx="2.5" fill="#8FB0FF"/><rect x="44" y="220" width="20" height="20" rx="2.5" fill="#8FB0FF"/><rect x="66" y="220" width="20" height="20" rx="2.5" fill="#1A5BFF"/><rect x="88" y="220" width="20" height="20" rx="2.5" fill="#3D74FF"/><rect x="110" y="220" width="20" height="20" rx="2.5" fill="#0048F8"/><rect x="132" y="220" width="20" height="20" rx="2.5" fill="#0040E0"/><rect x="154" y="220" width="20" height="20" rx="2.5" fill="#0040E0"/><rect x="176" y="220" width="20" height="20" rx="2.5" fill="#0048F8"/><rect x="198" y="220" width="20" height="20" rx="2.5" fill="#0048F8"/><rect x="220" y="220" width="20" height="20" rx="2.5" fill="#1A5BFF"/><rect x="242" y="220" width="20" height="20" rx="2.5" fill="#3D74FF"/><rect x="264" y="220" width="20" height="20" rx="2.5" fill="#0040E0"/><rect x="286" y="220" width="20" height="20" rx="2.5" fill="#3D74FF"/><rect x="198" y="110" width="20" height="20" rx="2.5" fill="#0048F8"/><rect x="264" y="66" width="20" height="20" rx="2.5" fill="#E0F84C"/></svg>